<?xml version="1.0" standalone="no"?>
<!DOCTYPE svg PUBLIC "-//W3C//DTD SVG 20010904//EN"
 "http://www.w3.org/TR/2001/REC-SVG-20010904/DTD/svg10.dtd">
<svg version="1.0" xmlns="http://www.w3.org/2000/svg"
 width="512.000000pt" height="512.000000pt" viewBox="0 0 512.000000 512.000000"
 preserveAspectRatio="xMidYMid meet">

<g transform="translate(0.000000,512.000000) scale(0.100000,-0.100000)"
fill="#000000" stroke="none">
<path d="M2345 5114 c-405 -33 -796 -150 -1089 -324 -153 -91 -229 -151 -367
-289 -224 -225 -353 -461 -420 -769 -30 -140 -38 -453 -15 -612 56 -385 204
-761 437 -1108 123 -185 233 -315 392 -468 l124 -120 -65 -59 c-197 -179 -373
-455 -462 -724 -62 -186 -102 -420 -86 -505 8 -44 59 -104 103 -122 48 -21
3278 -21 3326 0 44 18 95 78 103 122 16 85 -24 319 -86 505 -89 268 -261 538
-461 724 l-64 59 156 156 c238 237 396 455 543 750 131 263 215 527 252 786
22 164 15 477 -15 616 -26 121 -81 278 -131 378 -118 234 -328 465 -570 627
-272 181 -626 307 -1005 358 -115 16 -494 27 -600 19z m579 -169 c603 -80
1093 -347 1363 -741 105 -154 164 -290 210 -484 31 -131 42 -395 24 -547 -45
-364 -188 -735 -416 -1078 -200 -300 -460 -557 -736 -726 -113 -70 -122 -79
-121 -122 1 -38 32 -67 73 -67 29 0 113 45 211 113 l57 39 58 -51 c137 -121
288 -322 370 -491 86 -178 150 -407 155 -561 l3 -74 -287 -3 -288 -2 0 68 c0
82 -20 112 -75 112 -57 0 -75 -27 -75 -110 l0 -70 -890 0 -890 0 0 68 c0 82
-20 112 -75 112 -55 0 -75 -30 -75 -112 l0 -68 -287 2 -288 3 3 74 c5 140 55
340 128 505 87 197 238 406 392 543 l63 55 42 -29 c203 -143 451 -251 697
-305 150 -32 438 -32 585 0 190 42 215 56 215 121 0 32 -32 71 -60 71 -8 0
-59 -11 -112 -25 -527 -133 -1077 54 -1553 530 -317 317 -539 688 -669 1118
-65 213 -80 324 -81 567 0 238 14 330 77 509 199 563 763 953 1528 1055 63 9
140 17 170 20 108 8 437 -3 554 -19z"/>
<path d="M1563 3679 c-127 -12 -254 -62 -309 -121 -110 -116 -151 -394 -88
-593 29 -91 99 -121 147 -64 21 26 22 54 1 110 -38 107 -26 298 26 399 24 47
45 62 126 91 80 30 262 32 344 5 157 -53 293 -168 367 -311 61 -119 77 -187
77 -335 -1 -217 -32 -266 -185 -290 -184 -29 -357 10 -511 114 -50 33 -95 56
-111 56 -49 0 -81 -61 -61 -115 8 -21 113 -95 189 -133 135 -67 296 -95 460
-80 208 18 302 78 347 219 20 65 23 94 23 239 0 160 -1 168 -33 260 -18 52
-48 122 -67 155 -151 269 -443 424 -742 394z"/>
<path d="M3398 3679 c-298 -32 -548 -244 -651 -552 -30 -88 -31 -100 -32 -257
0 -145 3 -174 23 -239 32 -100 90 -160 188 -191 106 -34 319 -39 437 -11 335
80 576 339 617 662 22 181 -35 399 -125 478 -94 82 -286 128 -457 110z m262
-179 c36 -12 77 -33 91 -47 63 -59 97 -271 65 -407 -51 -217 -234 -398 -466
-462 -93 -26 -294 -25 -369 2 -70 25 -88 51 -107 155 -41 223 28 451 184 607
87 87 163 132 274 162 95 26 234 22 328 -10z"/>
<path d="M2385 2218 c-59 -32 -61 -86 -6 -138 45 -43 115 -70 181 -70 167 0
296 158 171 209 -32 14 -57 6 -97 -31 -44 -40 -103 -34 -173 17 -38 28 -47 29
-76 13z"/>
</g>
</svg>
